<?xml version="1.0" encoding="UTF-8"?>
<svg id="Layer_1" data-name="Layer 1" xmlns="http://www.w3.org/2000/svg" xmlns:xlink="http://www.w3.org/1999/xlink" viewBox="927.2 1202.97 1560.25 1031.94">
  <defs>
    <style>
      .cls-1 {
        fill: url(#linear-gradient);
      }

      .cls-1, .cls-2 {
        stroke-width: 0px;
      }

      .cls-2 {
        fill: #11121c;
      }
    </style>
    <linearGradient id="linear-gradient" x1="937.21" y1="1718.96" x2="2477.47" y2="1718.96" gradientUnits="userSpaceOnUse">
      <stop offset="0" stop-color="#45c7f0"/>
      <stop offset="1" stop-color="#6159a7"/>
    </linearGradient>
  </defs>
  
  <path class="cls-1" d="m1275.08,2048.82c96.67-.28,190.7,6.28,281.14-24.06,32.61-10.94,63.79-26.38,95.01-41.07,10.24-4.82,15.13-4.98,21.46,5.43,17.21,28.28,35.37,56.03,54.08,83.34,6.12,8.93,5.38,14.49-1.87,21.87-77.62,78.94-170.04,125.76-282.12,126.8-162.92,1.52-325.85,1.42-488.78,1.93-19.17.06-20.62-2.5-10.95-18.51,96.78-160.27,193.62-320.51,290.43-480.76,73.97-122.45,146.85-245.58,222.27-367.14,45.28-72.98,109.69-122.67,196.02-138.09,109.94-19.63,204.21,12.31,275.13,98.16,37.44,45.32,66.65,97.71,97.38,148.24,126.76,208.44,252.69,417.38,378.89,626.15,23.37,38.65,46.71,77.32,69.82,116.13,2.35,3.95,3.02,8.92,4.46,13.41-4.14,1.08-8.26,3.07-12.41,3.1-69.91.46-139.83.51-209.74,1.16-9.46.09-14.31-3.65-18.91-11.34-144.55-241.67-289.28-483.23-434.06-724.76-7.22-12.04-14.46-24.18-22.85-35.4-37.67-50.37-107.17-51.49-143.71-.23-26.45,37.11-48.86,77.14-72.48,116.22-93.21,154.22-186.18,308.58-279.21,462.91-2.76,4.59-5.16,9.4-9.03,16.49Z"/>
</svg>
