<?xml version="1.0" encoding="UTF-8"?>
<svg id="Layer_1" data-name="Layer 1" xmlns="http://www.w3.org/2000/svg" xmlns:xlink="http://www.w3.org/1999/xlink" viewBox="550 1400 2300 500">
  <defs>
    <style>
      .cls-1 {
        fill: url(#linear-gradient);
      }
      .cls-1, .cls-2 {
        stroke-width: 0px;
      }
      .cls-2 {
        fill: #11121c;
      }
      .cls-3 {
        fill: #fff;
        font-family: Satoshi-Bold, Satoshi;
        font-size: 437.04px;
        font-weight: 700;
      }
    </style>
    <linearGradient id="linear-gradient" x1="2336.89" y1="1672.07" x2="2824.78" y2="1672.07" gradientUnits="userSpaceOnUse">
      <stop offset="0" stop-color="#45c7f0"/>
      <stop offset="1" stop-color="#6159a7"/>
    </linearGradient>
  </defs>
  
  <g>
    <path class="cls-1" d="m2443.91,1776.56c30.62-.09,60.41,1.99,89.05-7.62,10.33-3.46,20.21-8.36,30.09-13.01,3.25-1.53,4.79-1.58,6.8,1.72,5.45,8.96,11.2,17.75,17.13,26.4,1.94,2.83,1.71,4.59-.59,6.93-24.59,25.01-53.86,39.83-89.36,40.17-51.6.48-103.21.45-154.82.61-6.07.02-6.53-.79-3.47-5.86,30.66-50.77,61.33-101.52,91.99-152.28,23.43-38.79,46.52-77.79,70.41-116.29,14.34-23.12,34.75-38.86,62.09-43.74,34.82-6.22,64.68,3.9,87.15,31.09,11.86,14.36,21.11,30.95,30.85,46.96,40.15,66.02,80.04,132.21,120.02,198.34,7.4,12.24,14.8,24.49,22.11,36.79.75,1.25.96,2.82,1.41,4.25-1.31.34-2.62.97-3.93.98-22.15.15-44.29.16-66.44.37-3,.03-4.53-1.16-5.99-3.59-45.79-76.55-91.63-153.07-137.49-229.57-2.29-3.81-4.58-7.66-7.24-11.21-11.93-15.95-33.95-16.31-45.52-.07-8.38,11.75-15.48,24.43-22.96,36.81-29.52,48.85-58.97,97.74-88.44,146.63-.88,1.45-1.63,2.98-2.86,5.22Z"/>
    <text class="cls-3" transform="translate(589.88 1833.92)"><tspan x="0" y="0">MONTIV</tspan></text>
  </g>
</svg>